/* XPM */
static char * cgpdot_xpm[] = {
"21 17 7 1 18 20",
" 	c none",
"a	c #6b6865",
"b	c #000000",
"c	c #3a3a3a",
"d	c #3e3e3e",
"e	c #3b3b3b",
"f	c #bd3300",
"                     ",
" aaaaaaaaaaaaaaaaaa  ",
" addddddddddeeeeeeed ",
" addddddddddeeeeeeed ",
" addfffdddddeeeeeeed ",
" addfffdddddeeeeeeed ",
" addfffdddddbbbbbb   ",
" addddddddddbccccc   ",
" addddddddddbccccc   ",
" addddddddddbcc      ",
" addddddddddbcc      ",
" addddddddddbcc      ",
" abbbbbbbbbbbcc      ",
"   cccccccccccc      ",
"   cccccccccccc      ",
"                     ",
"                     "};
