/* XPM */
static char * cgpdot_xpm[] = {
"20 17 6 1 17 20",
" 	c none",
"a	c #6b6865",
"b	c #000000",
"c	c #3a3a3a",
"d	c #3e3e3e",
"e	c #4b4b4b",
"                    ",
" aaaaaaaaaaaaaaaaa  ",
" addddddddddeeeeeed ",
" addddddddddeeeeeed ",
" addddddddddeeeeeed ",
" addddddddddeeeeeed ",
" addddddddddbbbbb   ",
" addddddddddbcccc   ",
" addddddddddbc      ",
" addddddddddbc      ",
" addddddddddbc      ",
" addddddddddbc      ",
" abbbbbbbbbbbc      ",
"   ccccccccccc      ",
"                    ",
"                    ",
"                    "};
