/* XPM */
static char * H_Streaks_xpm[] = {
"24 24 277 2",
"  	c none",
" a	c #bcbcbb",
" b	c #bdbdbe",
" c	c #bdbdbc",
" d	c #bdbcbd",
" e	c #bdbdbd",
" f	c #bcbdbd",
" g	c #bababa",
" h	c #b9bab9",
" i	c #b9b9ba",
" j	c #bab9b9",
" k	c #bbbbba",
" l	c #bebdbd",
" m	c #bdbebd",
" n	c #bebebe",
" o	c #bcbcbc",
" p	c #b9b8b9",
" q	c #8b8b8b",
" r	c #848584",
" s	c #858585",
" t	c #848484",
" u	c #818181",
" v	c #525252",
" w	c #3d3c3d",
" x	c #3c3d3c",
" y	c #3d3d3d",
" z	c #3c3c3c",
" A	c #585858",
" B	c #848384",
" C	c #858685",
" D	c #8c8c8c",
" E	c #b9b9b9",
" F	c #b3b3b4",
" G	c #848483",
" H	c #7c7c7d",
" I	c #7d7d7c",
" J	c #7c7d7d",
" K	c #7d7c7c",
" L	c #7d7d7d",
" M	c #797978",
" N	c #39393a",
" O	c #000000",
" P	c #000100",
" Q	c #444344",
" R	c #7b7b7a",
" S	c #7d7d7e",
" T	c #7d7e7d",
" U	c #7e7d7d",
" V	c #848485",
" W	c #b4b4b4",
" X	c #afafaf",
" Y	c #838383",
" Z	c #7c7c7c",
" 0	c #787879",
" 1	c #393939",
" 2	c #444443",
" 3	c #7a7a7b",
" 4	c #7e7e7e",
" 5	c #ababab",
" 6	c #848585",
" 7	c #807f7f",
" 8	c #7f7f7f",
" 9	c #7f8080",
" !	c #777777",
" @	c #525352",
" #	c #1b1b1b",
" $	c #000001",
" %	c #212121",
" ^	c #5b5b5b",
" &	c #5c5b5b",
" *	c #5b5c5b",
" (	c #5b5b5c",
" )	c #676666",
" _	c #a9a9a9",
" +	c #a7a7a7",
" -	c #8a8a8a",
" =	c #858686",
" {	c #868585",
" }	c #868686",
" |	c #3a3a3a",
" [	c #020202",
" ]	c #010101",
" :	c #353535",
" ;	c #a3a3a3",
" '	c #a3a4a3",
" <	c #8f8e8e",
" >	c #8b8b8c",
" ?	c #8c8c8b",
" ,	c #232323",
" .	c #505050",
" /	c #515151",
"a 	c #2b2b2b",
"aa	c #333334",
"ab	c #9e9e9e",
"ac	c #a09fa0",
"ad	c #939493",
"ae	c #919191",
"af	c #929292",
"ag	c #333333",
"ah	c #040404",
"ai	c #6f6f6f",
"aj	c #919091",
"ak	c #909191",
"al	c #828281",
"am	c #323232",
"an	c #9a9a9a",
"ao	c #9c9c9c",
"ap	c #989898",
"aq	c #979797",
"ar	c #8f8f8f",
"as	c #5e5e5e",
"at	c #959595",
"au	c #969696",
"av	c #787878",
"aw	c #6b6b6b",
"ax	c #6a6b6a",
"ay	c #6b6a6b",
"az	c #717171",
"aA	c #999999",
"aB	c #999899",
"aC	c #9c9d9c",
"aD	c #9d9c9d",
"aE	c #989998",
"aF	c #464646",
"aG	c #050505",
"aH	c #4c4b4c",
"aI	c #686968",
"aJ	c #828282",
"aK	c #949394",
"aL	c #9b9c9b",
"aM	c #9c9c9d",
"aN	c #9d9c9c",
"aO	c #a1a0a1",
"aP	c #a1a2a1",
"aQ	c #a1a1a1",
"aR	c #181717",
"aS	c #000101",
"aT	c #0e0e0e",
"aU	c #363536",
"aV	c #616261",
"aW	c #6c6b6c",
"aX	c #6c6c6b",
"aY	c #6b6c6c",
"aZ	c #6c6c6c",
"a0	c #717071",
"a1	c #939393",
"a2	c #a5a5a5",
"a3	c #a6a6a6",
"a4	c #a4a4a4",
"a5	c #2f2f2e",
"a6	c #2d2d2d",
"a7	c #898989",
"a8	c #8f9090",
"a9	c #abaaab",
"a!	c #ababaa",
"a@	c #aaabab",
"a#	c #a9aaaa",
"a$	c #9c9b9b",
"a%	c #757575",
"a^	c #484849",
"a&	c #212120",
"a*	c #2b2c2c",
"a(	c #8d8d8d",
"a)	c #adadad",
"a_	c #b0afaf",
"a+	c #afb0b0",
"a-	c #afaeae",
"a=	c #aeafaf",
"a{	c #aaaaaa",
"a}	c #9d9d9d",
"a|	c #888787",
"a[	c #5d5e5e",
"a]	c #191919",
"a:	c #2b2a2a",
"a;	c #b1b1b1",
"a'	c #b4b4b3",
"a<	c #b3b3b3",
"a>	c #8f8f90",
"a?	c #6d6e6d",
"a,	c #6e6d6d",
"a.	c #6d6d6e",
"a/	c #7a7a7a",
"b 	c #b0b0b0",
"ba	c #787979",
"bb	c #040303",
"bc	c #292929",
"bd	c #7e7f7f",
"be	c #888989",
"bf	c #b5b4b5",
"bg	c #b8b8b7",
"bh	c #b7b8b8",
"bi	c #b8b7b8",
"bj	c #8c8d8c",
"bk	c #060505",
"bl	c #232424",
"bm	c #9f9e9e",
"bn	c #b8b8b8",
"bo	c #929191",
"bp	c #070808",
"bq	c #292828",
"br	c #7b7c7c",
"bs	c #868787",
"bt	c #b9b8b8",
"bu	c #bbbcbc",
"bv	c #acacac",
"bw	c #4b4b4b",
"bx	c #979697",
"by	c #a8a9a8",
"bz	c #9b9b9b",
"bA	c #4e4e4e",
"bB	c #282828",
"bC	c #c0c0c0",
"bD	c #bfc0bf",
"bE	c #bfbebf",
"bF	c #878787",
"bG	c #111111",
"bH	c #0f0e0f",
"bI	c #131313",
"bJ	c #272727",
"bK	c #757675",
"bL	c #c0bfc0",
"bM	c #c3c4c4",
"bN	c #c4c4c3",
"bO	c #c4c3c4",
"bP	c #bfbebe",
"bQ	c #828383",
"bR	c #2d2c2c",
"bS	c #020303",
"bT	c #2e2e2d",
"bU	c #3a393a",
"bV	c #393a3a",
"bW	c #3a3a39",
"bX	c #444444",
"bY	c #757475",
"bZ	c #c3c3c3",
"b0	c #c7c8c8",
"b1	c #c8c7c7",
"b2	c #c7c8c7",
"b3	c #c8c7c8",
"b4	c #c6c5c6",
"b5	c #b2b2b2",
"b6	c #666566",
"b7	c #606161",
"b8	c #666665",
"b9	c #b6b5b6",
"b!	c #bdbcbc",
"b@	c #818281",
"b#	c #c6c6c6",
"b$	c #cbcbcc",
"b%	c #cbcccb",
"b^	c #cccbcb",
"b&	c #cbcbcb",
"b*	c #cacaca",
"b(	c #c9c9c9",
"b)	c #c8c8c8",
"b_	c #cacbcb",
"b+	c #cccccb",
"b-	c #cbcccc",
"b=	c #c7c7c7",
"b{	c #828182",
"b}	c #cecfce",
"b|	c #cfcfcf",
"b[	c #cfcecf",
"b]	c #cecfcf",
"b:	c #cfcfce",
"b;	c #d0cfcf",
"b'	c #cacbca",
"b<	c #808080",
"b>	c #cccccc",
"b?	c #cdcdcd",
"b,	c #cccdcd",
"b.	c #cdcccc",
"b/	c #cdcccd",
"c 	c #cdcdcc",
"ca	c #6d6d6d",
"cb	c #80807f",
"cc	c #7f7f80",
" a b c d e f e c d g h i j h i k e e b l e m n o",
" p q r s t s t s u v w x y z y A B C s s s s D E",
" F G H I J K L H M N O O O O P Q R S T U L L V W",
" X Y I H L Z L I 0 1 O O O O O 2 3 L 4 L L L t X",
" 5 6 7 8 9 8 7 ! @ # O O O O $ % v ^ & ^ * ( ) _",
" + - = { } s L | [ O O O O O O O O ] O ] O ] : ;",
" ' < D > ? q A [ O O , . /a  ] O O O O O O Oaaab",
"acadaeafae Dag O Oahaiajakala  O O O O O O Oaman",
"aoapaqaqaqara  O O [as DatauavawawawawaxayawazaA",
"aBaCaoaDaoaEaF O O OaGa aHaIaJaKaLaMaNaCaoaDaCaA",
"auaOaPaQaQaQ 4aR O O O O OaSaTaUaVaWaXaYaZaZa0ae",
"a1a2a3a3a3a3a4 3a5 [ O O O O O O O O O O O Oa6a7",
"a8 _a9a!a@a9a!a#a$a%a^a&aG O O O O O O O O Oa* {",
"a(a)a_ Xa+a-a= Xa-a=a{a}a|a[a] O O O O O O Oa:aJ",
" qa; Fa'a<a>a?a,a.a/b a' Wb babb O O O O O Obcbd",
"bebfbgbhbibjbk O Oblbmbhbnbnbobp O O O O O Obqbr",
"bsbt obu obvaU O O PbwbxbybzbA O O O O O O ObBav",
" s obCbDbCbEbFbG O O PbH ,bI O O O O O O O ObJbK",
" GbLbMbNbObMbPbQbRbS O O O O OaGbTbU |bVbW |bXbY",
" YbZb0b1b2b3b2b4b5aebKb6b7b8 !aub9 e fb! f c pb@",
"aJb#b$b%b^b&b&b$b%b^b*b(b)b(b_b^b$b+b-b^b-b^b=aJ",
"b{b*b}b|b[b]b:b|b[b|b|b]b|b|b|b|b;b|b|b|b|b|b'b{",
"b<b)b>b?b>b,b.b,b.b?b>b?b,b.b?b,b/c b?b,b.b?b)b<",
"ca 4 8 8 8 8 8 8 8 8 8 8 8 8 8 8cb 8 8 8 8cc 4ca"
};
