/* XPM */
static char * H_Vignette_xpm[] = {
"24 24 334 2",
"  	c none",
" a	c #bdbebd",
" b	c #bebdbe",
" c	c #bdbdbd",
" d	c #bebebe",
" e	c #bebfbe",
" f	c #c0bfc0",
" g	c #c1c1c1",
" h	c #c2c2c2",
" i	c #c3c3c3",
" j	c #c4c4c4",
" k	c #c4c5c4",
" l	c #c4c3c4",
" m	c #c0c0c0",
" n	c #bfbfbf",
" o	c #b9b9b8",
" p	c #59595a",
" q	c #434443",
" r	c #454444",
" s	c #454546",
" t	c #484847",
" u	c #49494a",
" v	c #4c4c4c",
" w	c #4e4e4e",
" x	c #505150",
" y	c #525152",
" z	c #525252",
" A	c #525352",
" B	c #4f4e4e",
" C	c #494a4a",
" D	c #484748",
" E	c #464646",
" F	c #444544",
" G	c #444344",
" H	c #5a5a5a",
" I	c #b9b9b9",
" J	c #b3b3b3",
" K	c #414141",
" L	c #181718",
" M	c #1c1d1c",
" N	c #212122",
" O	c #282828",
" P	c #2f2e2e",
" Q	c #343534",
" R	c #39393a",
" S	c #3e3e3e",
" T	c #424242",
" U	c #3a3a3a",
" V	c #343434",
" W	c #2f2f2f",
" X	c #222222",
" Y	c #1d1d1c",
" Z	c #181818",
" 0	c #414142",
" 1	c #b4b4b4",
" 2	c #afafaf",
" 3	c #414140",
" 4	c #181819",
" 5	c #151515",
" 6	c #1e1e1d",
" 7	c #282827",
" 8	c #505050",
" 9	c #545454",
" !	c #555555",
" @	c #565656",
" #	c #545453",
" $	c #505051",
" %	c #474746",
" ^	c #282829",
" &	c #1d1d1d",
" *	c #191919",
" (	c #1a1a1a",
" )	c #b0b0af",
" _	c #ababaa",
" +	c #0a0b0a",
" -	c #070606",
" =	c #050506",
" {	c #050505",
" }	c #636364",
" |	c #676767",
" [	c #696969",
" ]	c #676867",
" :	c #646364",
" ;	c #4a4a4a",
" '	c #060606",
" <	c #050504",
" >	c #0e0e0e",
" ?	c #242423",
" ,	c #ababab",
" .	c #a7a6a6",
" /	c #444444",
"a 	c #1b1b1c",
"aa	c #060605",
"ab	c #040405",
"ac	c #040403",
"ad	c #030303",
"ae	c #3c3c3c",
"af	c #747475",
"ag	c #797a79",
"ah	c #7b7b7b",
"ai	c #7a7979",
"aj	c #757575",
"ak	c #040404",
"al	c #040505",
"am	c #060505",
"an	c #212121",
"ao	c #303030",
"ap	c #a7a7a7",
"aq	c #a3a3a3",
"ar	c #353535",
"as	c #060607",
"at	c #030302",
"au	c #020202",
"av	c #242424",
"aw	c #7c7c7d",
"ax	c #888888",
"ay	c #898989",
"az	c #7f7f7e",
"aA	c #2b2b2b",
"aB	c #030203",
"aC	c #030404",
"aD	c #090909",
"aE	c #3a3a39",
"aF	c #3b3a3b",
"aG	c #474847",
"aH	c #a3a3a4",
"aI	c #9f9f9f",
"aJ	c #4b4b4b",
"aK	c #4d4d4d",
"aL	c #1b1b1b",
"aM	c #010101",
"aN	c #080808",
"aO	c #747474",
"aP	c #929292",
"aQ	c #919191",
"aR	c #7a7a7a",
"aS	c #454545",
"aT	c #a0a0a0",
"aU	c #9c9c9c",
"aV	c #504f50",
"aW	c #4e4e4d",
"aX	c #5e5e5f",
"aY	c #3f3f3f",
"aZ	c #010201",
"a0	c #010001",
"a1	c #000000",
"a2	c #5b5c5b",
"a3	c #979697",
"a4	c #979797",
"a5	c #979897",
"a6	c #646464",
"a7	c #000100",
"a8	c #5f5f60",
"a9	c #9c9d9c",
"a!	c #999899",
"a@	c #535453",
"a#	c #575657",
"a$	c #686968",
"a%	c #0d0e0d",
"a^	c #383838",
"a&	c #969596",
"a*	c #9c9c9d",
"a(	c #989897",
"a)	c #434243",
"a_	c #575757",
"a+	c #999999",
"a-	c #959695",
"a=	c #5d5d5d",
"a{	c #717171",
"a}	c #7d7c7d",
"a|	c #363736",
"a[	c #010000",
"a]	c #131314",
"a:	c #898a89",
"a;	c #a2a1a1",
"a'	c #a1a2a2",
"a<	c #8f8f8f",
"a>	c #403f40",
"a?	c #7f807f",
"a,	c #5e5d5e",
"a.	c #575857",
"a/	c #969696",
"b 	c #929291",
"ba	c #636362",
"bb	c #767676",
"bc	c #888889",
"bd	c #656564",
"be	c #000001",
"bf	c #70706f",
"bg	c #a6a6a6",
"bh	c #79797a",
"bi	c #6c6c6c",
"bj	c #777777",
"bk	c #636363",
"bl	c #8d8d8d",
"bm	c #5b5b5b",
"bn	c #656565",
"bo	c #8c8c8d",
"bp	c #898988",
"bq	c #1e1e1e",
"br	c #4a4b4b",
"bs	c #a8a8a8",
"bt	c #252626",
"bu	c #8d8c8d",
"bv	c #8e8e8d",
"bw	c #656566",
"bx	c #5c5c5b",
"by	c #8e8e8e",
"bz	c #8a8a89",
"bA	c #5a5a5b",
"bB	c #666666",
"bC	c #8e8f8e",
"bD	c #9b9a9b",
"bE	c #a2a2a2",
"bF	c #2e2e2e",
"bG	c #9d9d9c",
"bH	c #8e8e8f",
"bI	c #8a8a8a",
"bJ	c #858585",
"bK	c #585959",
"bL	c #646463",
"bM	c #797879",
"bN	c #9e9e9e",
"bO	c #7d7e7d",
"bP	c #040303",
"bQ	c #838383",
"bR	c #9e9f9e",
"bS	c #656464",
"bT	c #868585",
"bU	c #818081",
"bV	c #5f605f",
"bW	c #757475",
"bX	c #9a9a9a",
"bY	c #5a5b5a",
"bZ	c #676667",
"b0	c #9d9c9d",
"b1	c #9a9b9a",
"b2	c #898889",
"b3	c #606060",
"b4	c #818181",
"b5	c #7d7c7c",
"b6	c #595a5a",
"b7	c #6d6d6d",
"b8	c #828181",
"b9	c #939393",
"b!	c #a1a1a1",
"b@	c #5f6060",
"b#	c #191819",
"b$	c #202020",
"b%	c #000101",
"b^	c #939494",
"b&	c #6d6e6e",
"b*	c #5a5959",
"b(	c #7d7d7d",
"b)	c #787979",
"b_	c #525251",
"b+	c #99999a",
"b-	c #848483",
"b=	c #0e0d0e",
"b{	c #010100",
"b}	c #111110",
"b|	c #868687",
"b[	c #9a9999",
"b]	c #777778",
"b:	c #484848",
"b;	c #595959",
"b'	c #6b6b6b",
"b<	c #7c7c7c",
"b>	c #8c8c8c",
"b?	c #919090",
"b,	c #363737",
"b.	c #020201",
"b/	c #010102",
"c 	c #929191",
"ca	c #8c8d8d",
"cb	c #737273",
"cc	c #3d3e3d",
"cd	c #4e4d4d",
"ce	c #5d5e5e",
"cf	c #020303",
"cg	c #030202",
"ch	c #5d5c5c",
"ci	c #888989",
"cj	c #727272",
"ck	c #707070",
"cl	c #393939",
"cm	c #353635",
"cn	c #424142",
"co	c #4f4f4f",
"cp	c #6a6a6a",
"cq	c #141414",
"cr	c #070807",
"cs	c #080708",
"ct	c #6a6b6a",
"cu	c #363536",
"cv	c #6e6e6e",
"cw	c #373737",
"cx	c #4d4d4c",
"cy	c #585859",
"cz	c #696a69",
"cA	c #5b5a5b",
"cB	c #5d5d5c",
"cC	c #5e5f5e",
"cD	c #5d5c5d",
"cE	c #5b5b5a",
"cF	c #69696a",
"cG	c #636463",
"cH	c #595859",
"cI	c #2f2f2e",
"cJ	c #353536",
"cK	c #3d3d3c",
"cL	c #464645",
"cM	c #4d4d4e",
"cN	c #565655",
"cO	c #5c5c5d",
"cP	c #626262",
"cQ	c #686868",
"cR	c #676666",
"cS	c #626362",
"cT	c #565555",
"cU	c #4d4e4e",
"cV	c #363636",
"cW	c #6e6d6d",
"cX	c #6d6c6d",
"cY	c #6c6d6c",
"cZ	c #6f6e6f",
"c0	c #6f706f",
"c1	c #727273",
"c2	c #737373",
"c3	c #737372",
"c4	c #706f70",
"c5	c #6e6f6e",
"c6	c #6c6c6d",
"c7	c #6d6c6c",
" a b c c d e f g h i j j k j l h g m n d d c d n",
" o p q r s t u v w x y z A y x B v C D E F G H I",
" J K L M N O P Q R S K T T K S U V W O X Y Z 0 1",
" 2 3 4 5 Z 6 N 7 s 8 9 ! @ # $ % ^ X & * 5 ( K )",
" _ 0 X + - = { { % } | [ [ ] : ; ' < = ' > ? T ,",
" . / Wa aaabacadaeafagahahaiaj Kadakalamanao /ap",
"aq % UarasakatauavawaxayayaxazaAauaBaCaDaEaFaGaH",
"aIaJ /aKaLadauaMaNaOaPaQaPaQaR >aMauad X 8aSaJaT",
"aUaVaWaXaYauaZa0a1a2a3a4a5a3a6a7a0aMad %a8 w 8a9",
"a!a@a#a$ :a%aMa1a1a^a&a9a*a(a)a1a1a7 5 [ [a_ 9a+",
"a-a_a=a{a}a|a[a1a1a]a:a;a'a< &a1a1a1a>a?a{a,a.a/",
"b  pbabbbcbdaua1a1bebfbgbgbhata1a1adbiaybjbk HaP",
"blbmbnaRbobpbqa1a1a1br .bsa_a1a1a1btbubvaRbwbxby",
"bzbAbBaRbCbD 8a1a1a1anaUbEbFa1a1a1a_bGbHahbBbmbI",
"bJbKbLbMblbNbO =a1a1bPbQbyaDa1a1aNbQbRblbhbSbKbT",
"bU !bVbWaxbXbX Wa1a1a1bYbZa1a1a1 Qb0b1b2ajb3 !b4",
"b5 8b6b7b8b9b!b@a[a7a1b#b$a1a1b%bSbEb^b8b&b* xb(",
"b) ;b_a6bjayb+b-b=b%a[a7beb{beb}b|b[a:b]bd y ;ag",
"aj /b:b;b'b<b>b?b,auaMaMb.b/b. Rc cab<b' Hb: /bb",
"cbccaYcdceb7b<axbmbPcfcgcfcgaCchcib5b&a= waY Scj",
"ckclcmcncoa=cpbjbicqcrcscrcscqb7bjcta=co Tcuclck",
"cvcm Pcw 0cxcybkczcAcBaXcCcDcEcFcGcHcx 0cwcIcJcv",
"b7cKcJclaYcLcMcNcOcPbBcQcQcRcScOcTcU EaYclcVaecW",
"bibibicXcYcvcZc0a{cjc1c2c2c3cja{c4c5cvcXcYbic6c7"
};
