/* XPM */
static char * H_ZFaker_xpm[] = {
"24 24 350 2",
"  	c none",
" a	c #bbbcbc",
" b	c #c0c0c0",
" c	c #bfbebe",
" d	c #bebfbf",
" e	c #bebebe",
" f	c #bfbfbf",
" g	c #bebfbe",
" h	c #bebebf",
" i	c #bfbfbe",
" j	c #bfbfc0",
" k	c #bdbdbc",
" l	c #bbbbbb",
" m	c #a2a2a2",
" n	c #999a99",
" o	c #949494",
" p	c #8f8e8f",
" q	c #8d8d8d",
" r	c #8f908f",
" s	c #919091",
" t	c #929392",
" u	c #949394",
" v	c #939493",
" w	c #939293",
" x	c #929291",
" y	c #8f9090",
" z	c #8e8e8e",
" A	c #8f8f8f",
" B	c #9a9b9a",
" C	c #a3a2a3",
" D	c #bcbcbc",
" E	c #b5b6b6",
" F	c #999998",
" G	c #858485",
" H	c #7b7c7b",
" I	c #777778",
" J	c #757575",
" K	c #767676",
" L	c #7a7a79",
" M	c #7e7e7f",
" N	c #838383",
" O	c #858585",
" P	c #868685",
" Q	c #848384",
" R	c #808080",
" S	c #7b7b7b",
" T	c #777877",
" U	c #757576",
" V	c #787777",
" W	c #848485",
" X	c #8e8d8d",
" Y	c #999999",
" Z	c #b6b6b6",
" 0	c #b1b1b1",
" 1	c #939393",
" 2	c #79797a",
" 3	c #6d6d6d",
" 4	c #646464",
" 5	c #5f5f5f",
" 6	c #676767",
" 7	c #717271",
" 8	c #7b7a7b",
" 9	c #7f7f7e",
" !	c #7f7f80",
" @	c #7c7c7c",
" #	c #747474",
" $	c #6a6a6a",
" %	c #616161",
" ^	c #5e5e5e",
" &	c #636363",
" *	c #6c6c6b",
" (	c #787979",
" )	c #868586",
" _	c #acacac",
" +	c #717070",
" -	c #5c5d5d",
" =	c #4e4e4e",
" {	c #414141",
" }	c #515151",
" |	c #676766",
" [	c #7d7c7d",
" ]	c #7d7d7d",
" :	c #575757",
" ;	c #444444",
" '	c #3f3f3f",
" <	c #4a4a4b",
" >	c #5a5a5a",
" ?	c #6e6e6e",
" ,	c #7e7e7e",
" .	c #8f8f8e",
" /	c #adadad",
"a 	c #a8a8a8",
"aa	c #90908f",
"ab	c #808081",
"ac	c #6f6f6f",
"ad	c #595958",
"ae	c #424243",
"af	c #2c2c2c",
"ag	c #292928",
"ah	c #444445",
"ai	c #666666",
"aj	c #7d7d7c",
"ak	c #828383",
"al	c #848383",
"am	c #6e6f6e",
"an	c #4d4c4d",
"ao	c #282828",
"ap	c #3c3c3c",
"aq	c #545454",
"ar	c #6c6c6c",
"as	c #a8a8a9",
"at	c #a4a4a4",
"au	c #929191",
"av	c #717171",
"aw	c #575858",
"ax	c #1b1b1b",
"ay	c #0d0d0d",
"az	c #383737",
"aA	c #6a6b6b",
"aB	c #868686",
"aC	c #8a8a8a",
"aD	c #898888",
"aE	c #757676",
"aF	c #454444",
"aG	c #121313",
"aH	c #121111",
"aI	c #333434",
"aJ	c #525151",
"aK	c #808181",
"aL	c #919090",
"aM	c #a4a5a5",
"aN	c #a0a0a0",
"aO	c #878787",
"aP	c #5b5b5b",
"aQ	c #3d3c3c",
"aR	c #161717",
"aS	c #020201",
"aT	c #2a2a2a",
"aU	c #737374",
"aV	c #919191",
"aW	c #818181",
"aX	c #3b3b3b",
"aY	c #030303",
"aZ	c #0b0b0b",
"a0	c #333333",
"a1	c #707070",
"a2	c #848484",
"a3	c #a1a1a0",
"a4	c #9c9d9c",
"a5	c #979797",
"a6	c #8b8a8a",
"a7	c #5f5e5e",
"a8	c #3e3e3e",
"a9	c #141515",
"a!	c #000000",
"a@	c #191818",
"a#	c #7d7d7e",
"a$	c #979897",
"a%	c #989797",
"a^	c #8d8d8e",
"a&	c #313130",
"a*	c #080808",
"a(	c #888888",
"a)	c #969696",
"a_	c #9c9d9d",
"a+	c #8f8e8e",
"a-	c #626262",
"a=	c #121212",
"a{	c #060607",
"a}	c #606060",
"a|	c #717170",
"a[	c #707071",
"a]	c #707171",
"a:	c #6c6b6b",
"a;	c #202020",
"a'	c #050505",
"a<	c #787878",
"a>	c #8c8c8c",
"a?	c #989899",
"a,	c #9a9a99",
"a.	c #969595",
"a/	c #929292",
"b 	c #666665",
"ba	c #101011",
"bb	c #040403",
"bc	c #333233",
"bd	c #7c7c7b",
"be	c #908f90",
"bf	c #9b9c9b",
"bg	c #9e9e9e",
"bh	c #686969",
"bi	c #434343",
"bj	c #111010",
"bk	c #343434",
"bl	c #7f7f7f",
"bm	c #929393",
"bn	c #9e9d9d",
"bo	c #a0a0a1",
"bp	c #989998",
"bq	c #6c6b6c",
"br	c #464645",
"bs	c #050404",
"bt	c #373737",
"bu	c #818182",
"bv	c #959695",
"bw	c #a09fa0",
"bx	c #9a9a9a",
"by	c #89898a",
"bz	c #6f6f6e",
"bA	c #494949",
"bB	c #171717",
"bC	c #020203",
"bD	c #30302f",
"bE	c #383838",
"bF	c #393839",
"bG	c #383938",
"bH	c #353635",
"bI	c #070707",
"bJ	c #a1a1a1",
"bK	c #898989",
"bL	c #a4a3a3",
"bM	c #9c9c9c",
"bN	c #8b8c8b",
"bO	c #4c4c4d",
"bP	c #1c1c1c",
"bQ	c #010000",
"bR	c #1f2020",
"bS	c #908f8f",
"bT	c #acadad",
"bU	c #adacac",
"bV	c #3a3a3a",
"bW	c #696969",
"bX	c #868585",
"bY	c #989999",
"bZ	c #a5a4a5",
"b0	c #9d9e9d",
"b1	c #737373",
"b2	c #4f4f50",
"b3	c #222221",
"b4	c #393939",
"b5	c #b9b8b9",
"b6	c #b8b9b8",
"b7	c #b8b8b8",
"b8	c #4e4f4e",
"b9	c #050506",
"b!	c #131313",
"b@	c #444443",
"b#	c #6b6b6b",
"b$	c #a6a6a5",
"b%	c #9f9e9f",
"b^	c #8e8f8f",
"b&	c #525252",
"b*	c #272727",
"b(	c #504f4f",
"b)	c #b6b7b7",
"b_	c #bdbdbd",
"b+	c #bababa",
"b-	c #616160",
"b=	c #1c1c1d",
"b{	c #191919",
"b}	c #484847",
"b|	c #6d6d6e",
"b[	c #9a9b9b",
"b]	c #a3a3a3",
"b:	c #828282",
"b;	c #a7a6a6",
"b'	c #909191",
"b<	c #797878",
"b>	c #565656",
"b?	c #2c2d2d",
"b,	c #2a2929",
"b.	c #949595",
"b/	c #b6b5b5",
"c 	c #c0c0c1",
"ca	c #c1c2c1",
"cb	c #bbbaba",
"cc	c #6d6e6e",
"cd	c #222222",
"ce	c #4c4b4b",
"cf	c #a9a9a9",
"cg	c #969796",
"ch	c #646364",
"ci	c #464746",
"cj	c #4b4b4b",
"ck	c #727272",
"cl	c #c3c3c3",
"cm	c #c5c4c5",
"cn	c #bbbcbb",
"co	c #535353",
"cp	c #424141",
"cq	c #5b5c5c",
"cr	c #7a7a7a",
"cs	c #9fa0a0",
"ct	c #a6a6a6",
"cu	c #a0a09f",
"cv	c #7a7b7b",
"cw	c #6e6e6d",
"cx	c #878788",
"cy	c #b9bab9",
"cz	c #c5c5c6",
"cA	c #c7c7c7",
"cB	c #bebebd",
"cC	c #aaaaaa",
"cD	c #8e8e8f",
"cE	c #767575",
"cF	c #8a8b8b",
"cG	c #9b9b9b",
"cH	c #aaa9a9",
"cI	c #7e7f7f",
"cJ	c #adacad",
"cK	c #a5a6a5",
"cL	c #a9a9aa",
"cM	c #babab9",
"cN	c #c4c3c4",
"cO	c #c5c6c5",
"cP	c #aeaeae",
"cQ	c #8a8a89",
"cR	c #979798",
"cS	c #aaabaa",
"cT	c #7b7b7c",
"cU	c #acacab",
"cV	c #adadae",
"cW	c #a3a4a4",
"cX	c #949493",
"cY	c #a1a1a2",
"cZ	c #b9b9b9",
"c0	c #c1c1c0",
"c1	c #c1c1c2",
"c2	c #a5a5a5",
"c3	c #939394",
"c4	c #a7a7a7",
"c5	c #a6a7a7",
"c6	c #abaaaa",
"c7	c #a6a7a6",
"c8	c #a1a0a1",
"c9	c #9e9e9d",
"c!	c #9f9fa0",
"c@	c #b3b4b4",
"c#	c #b9b8b8",
"c$	c #b5b5b5",
"c%	c #afafaf",
"c^	c #a7a7a8",
"c&	c #6d6c6d",
"c*	c #797978",
"c(	c #797a7a",
"c)	c #7a797a",
"c_	c #797979",
"c+	c #787879",
"c-	c #7b7b7a",
"c=	c #6c6c6d",
" a b c d e e e e e c d e f c d c g h c d i j b k",
" l m n o p q q q r s t u v w x y p q z A o B C D",
" E F q G H I J K L M N O P Q R S T U V H W X Y Z",
" 0 1 P 2 3 4 5 5 6 7 8 9 ! @ # $ % ^ & * ( ) 1 0",
" _ A ! + - = { { } | K [ ] ( * : ; ' < > ? , . /",
"a aaabacadaeafagahaiajakal !amanafaoapaqar 9 Aas",
"atau NavawapaxayazaAaBaCaCaDaEaFaGaHaIaJ 3aKaLaM",
"aN oaO #aPaQaRaSaTaU AaVaVaVaWaXaYaZa0aqa1a2 1a3",
"a4a5a6 (a7a8a9a!a@a#a5a$a5a%a^a&a!a*a0 : #a(a)a_",
" Y na+ ]a- 'a=a!a{a}a|a[a|a]a:a;a!a'a0 >a<a>a?a,",
"a.a4a/abb  {baa!a!a!a!a!a!a!a!a!a!bbbc -bdbebfa)",
"a/bga)a2bhbibja!a!a!a!a!a!a!a!a!a!aYbka}blbmbn 1",
" AbobpaObqbraGa!a!a!a!a!a!a!a!a!a!bsbt &bubvbw r",
"a> mbxbybzbAbBa!bCbDbEbFbGbFbHaZa!bIaXaia2a5bJa>",
"bKbLbMbNavbObPbQbRbSbTbUbT /bJbVa!ay 'bWbXbY mbK",
"aBbZb0 qb1b2b3aYb4 o Zb5b6b7bZb8b9b!b@b#aObx maO",
"a2b$b%b^ Kb&b*b!b( 1b)b_b_b+bJb-b=b{b}b|aDb[b]a2",
"b:b;bJb'b<b>b?b,a}b.b/c cacbaNccbkcdcea]a6bMatb:",
"abcfatcgaWchcicjckbx Zclcmcnb] @cocpcqcraLcsct R",
"bl _cfcubecvbWcwcxbLcyczcAcBcCcDb1 6cEcFcGctcHcI",
" ]cJ _cKcGa>b:aBa5cLcMcNcOb_cPbMbyaWcQcR mcHcS ]",
"cTcUcVcHcWbxcXa5cYcPcZc0c1 D 0c2a,c3 FcYc4cUcCcT",
"crc5c6asc7c8c9c!b$ /c@c#cZc$c%a bJbgaNc2c^cfct L",
"c&c*c(c) Lc_c+c* 2c-cT @ @ @ S Lc_c+c_c_cr Lc_c="
};
